<mxfile host="65bd71144e">
    <diagram id="Ivo3L8sJV_vKgc87Jo6E" name="Page-1">
        <mxGraphModel dx="1683" dy="682" grid="0" gridSize="10" guides="1" tooltips="1" connect="1" arrows="1" fold="1" page="0" pageScale="1" pageWidth="827" pageHeight="3000" background="#ffffff" math="0" shadow="0">
            <root>
                <mxCell id="0"/>
                <mxCell id="1" parent="0"/>
                <UserObject label="" link="https://cdn.try.direct/files/8400033b-cf2e-4fc4-ac91-45cadee082ed.svg" id="26">
                    <mxCell style="rounded=0;whiteSpace=wrap;html=1;fillStyle=auto;fillColor=none;strokeWidth=3;strokeColor=#030303;" parent="1" vertex="1">
                        <mxGeometry x="40" y="263.92" width="619" height="580" as="geometry"/>
                    </mxCell>
                </UserObject>
                <mxCell id="30" value="" style="rounded=0;whiteSpace=wrap;html=1;fillStyle=solid;fillColor=#FFFFFF;strokeColor=#030303;" parent="1" vertex="1">
                    <mxGeometry x="-50" y="300" width="120" height="180" as="geometry"/>
                </mxCell>
                <mxCell id="4" value="Storage for Python&lt;br&gt;scripts and venvs" style="text;html=1;align=center;verticalAlign=middle;resizable=0;points=[];autosize=1;strokeColor=none;fillColor=none;fontColor=#161616;" parent="1" vertex="1">
                    <mxGeometry x="45.00000000000003" y="742" width="118" height="41" as="geometry"/>
                </mxCell>
                <mxCell id="8" value="Script Execution&lt;br&gt;Celery" style="text;html=1;align=center;verticalAlign=middle;resizable=0;points=[];autosize=1;strokeColor=none;fillColor=none;fontColor=#000000;" parent="1" vertex="1">
                    <mxGeometry x="267.5" y="742" width="105" height="41" as="geometry"/>
                </mxCell>
                <mxCell id="11" value="Web UI&lt;br&gt;Next.js" style="text;html=1;align=center;verticalAlign=middle;resizable=0;points=[];autosize=1;strokeColor=none;fillColor=none;fontColor=#000000;" parent="1" vertex="1">
                    <mxGeometry x="-19" y="429" width="58" height="41" as="geometry"/>
                </mxCell>
                <mxCell id="14" value="REST API&lt;br&gt;FastAPI" style="text;html=1;align=center;verticalAlign=middle;resizable=0;points=[];autosize=1;strokeColor=none;fillColor=none;fontColor=#000000;" parent="1" vertex="1">
                    <mxGeometry x="284" y="429" width="72" height="41" as="geometry"/>
                </mxCell>
                <mxCell id="17" value="Storage&lt;br&gt;PostgreSQL" style="text;html=1;align=center;verticalAlign=middle;resizable=0;points=[];autosize=1;strokeColor=none;fillColor=none;fontColor=#000000;" parent="1" vertex="1">
                    <mxGeometry x="514.5" y="429" width="83" height="41" as="geometry"/>
                </mxCell>
                <mxCell id="31" value="" style="sketch=0;aspect=fixed;html=1;points=[];align=center;image;fontSize=12;image=img/lib/mscae/Docker.svg;fillStyle=solid;" parent="1" vertex="1">
                    <mxGeometry x="488.31" y="636.91" width="135.37" height="111" as="geometry"/>
                </mxCell>
                <mxCell id="37" value="" style="shape=singleArrow;whiteSpace=wrap;html=1;fillColor=#f0a30a;arrowWidth=0.3979554468271666;arrowSize=0.077257800703288;rotation=0;strokeColor=#BD7000;fontColor=#000000;" vertex="1" parent="1">
                    <mxGeometry x="80" y="352" width="181" height="28" as="geometry"/>
                </mxCell>
                <mxCell id="41" value="" style="shape=singleArrow;whiteSpace=wrap;html=1;fillColor=#f0a30a;arrowWidth=0.4529898750925108;arrowSize=0.07104292969198799;rotation=-55;strokeColor=#BD7000;fontColor=#000000;" vertex="1" parent="1">
                    <mxGeometry x="339.1" y="559.25" width="226.02" height="20" as="geometry"/>
                </mxCell>
                <mxCell id="44" value="" style="shape=singleArrow;whiteSpace=wrap;html=1;fillColor=#f0a30a;arrowWidth=1;arrowSize=0;rotation=0;strokeColor=#BD7000;fontColor=#000000;strokeWidth=1;" vertex="1" parent="1">
                    <mxGeometry x="384" y="361" width="107" height="10" as="geometry"/>
                </mxCell>
                <mxCell id="16" value="" style="shape=image;verticalLabelPosition=bottom;labelBackgroundColor=default;verticalAlign=top;aspect=fixed;imageAspect=0;image=https://upload.wikimedia.org/wikipedia/commons/thumb/2/29/Postgresql_elephant.svg/1200px-Postgresql_elephant.svg.png;" parent="1" vertex="1">
                    <mxGeometry x="506.57" y="319" width="98.85" height="102" as="geometry"/>
                </mxCell>
                <mxCell id="45" value="" style="shape=singleArrow;whiteSpace=wrap;html=1;fillColor=#f0a30a;arrowWidth=0.4529898750925108;arrowSize=0.07104292969198799;rotation=90;strokeColor=#BD7000;fontColor=#000000;" vertex="1" parent="1">
                    <mxGeometry x="229.93" y="560.93" width="181" height="16.86" as="geometry"/>
                </mxCell>
                <mxCell id="3" value="" style="verticalLabelPosition=bottom;html=1;verticalAlign=top;strokeWidth=1;align=center;outlineConnect=0;dashed=0;outlineConnect=0;shape=mxgraph.aws3d.s3Bucket;fillColor=#4286c5;strokeColor=default;aspect=fixed;" parent="1" vertex="1">
                    <mxGeometry x="60" y="642.91" width="95.43" height="99" as="geometry"/>
                </mxCell>
                <mxCell id="5" value="" style="shape=image;verticalLabelPosition=bottom;labelBackgroundColor=default;verticalAlign=top;aspect=fixed;imageAspect=0;image=https://upload.wikimedia.org/wikipedia/commons/1/19/Celery_logo.png;clipPath=inset(28.33% 0% 27% 0%);" parent="1" vertex="1">
                    <mxGeometry x="268.22" y="669" width="112" height="50.02666666666667" as="geometry"/>
                </mxCell>
                <mxCell id="46" value="" style="shape=singleArrow;whiteSpace=wrap;html=1;fillColor=#f0a30a;arrowWidth=1;arrowSize=0;rotation=0;strokeColor=#BD7000;fontColor=#000000;strokeWidth=1;" vertex="1" parent="1">
                    <mxGeometry x="384.98" y="689" width="94.02" height="6.82" as="geometry"/>
                </mxCell>
                <mxCell id="47" value="" style="shape=singleArrow;whiteSpace=wrap;html=1;fillColor=#f0a30a;arrowWidth=1;arrowSize=0;rotation=0;strokeColor=#BD7000;fontColor=#000000;strokeWidth=1;" vertex="1" parent="1">
                    <mxGeometry x="159.07000000000002" y="690.6" width="94.02" height="6.82" as="geometry"/>
                </mxCell>
                <mxCell id="10" value="" style="shape=image;verticalLabelPosition=bottom;labelBackgroundColor=default;verticalAlign=top;aspect=fixed;imageAspect=0;image=https://www.drupal.org/files/project-images/nextjs-icon-dark-background.png;" parent="1" vertex="1">
                    <mxGeometry x="-40" y="320" width="100" height="100" as="geometry"/>
                </mxCell>
                <mxCell id="50" value="" style="shape=image;verticalLabelPosition=bottom;labelBackgroundColor=default;verticalAlign=top;aspect=fixed;imageAspect=0;image=https://cdn.try.direct/files/8400033b-cf2e-4fc4-ac91-45cadee082ed.svg;" vertex="1" parent="1">
                    <mxGeometry x="272.68" y="322.68" width="94.65" height="94.65" as="geometry"/>
                </mxCell>
            </root>
        </mxGraphModel>
    </diagram>
</mxfile>